<?xml version="1.0" encoding="utf-8"?>
<!-- Generator: Adobe Illustrator 25.2.3, SVG Export Plug-In . SVG Version: 6.00 Build 0)  -->
<svg version="1.1" id="圖層_1" xmlns="http://www.w3.org/2000/svg" xmlns:xlink="http://www.w3.org/1999/xlink" x="0px" y="0px"
	 viewBox="0 0 255.3 85.7" style="enable-background:new 0 0 255.3 85.7;" xml:space="preserve">
<style type="text/css">
	.st0{fill:none;}
	.st1{fill:#B9BF0D;}
	.st2{fill:#F5303E;}
	.st3{fill:#FF9D19;}
	.st4{fill:#23749F;}
	.st5{fill:#015C85;}
	.st6{fill:#1FC3E0;}
	.st7{fill:#4EB5D1;}
</style>
<g>
	<path class="st0" d="M7.8,11.5c0-1.1,0.4-2.2,1.2-3.3c0.8-1.2,1.9-2.5,3.2-3.5c-2.9,0.8-6,2.2-7.5,4.7C3.1,12,3.2,16.7,6.4,18
		c0.9,0.4,1.9,0.6,2.9,0.6C7.9,16.4,7.1,13.9,7.8,11.5z"/>
	<path class="st0" d="M104.5,13.9c0.9,0.3,1.9,0.5,2.7,0.5c0.6,0,1.2,0.1,1.8,0c0.7-0.8,1.2-1.6,1.4-2.4c0-0.2,0-0.4,0.1-0.6
		c0-0.3,0-0.6-0.1-0.9c-0.1-0.3-0.3-0.5-0.7-0.7c-1.2,0.3-2.4,0.8-3.4,1.5C105.3,12.2,104.7,13.1,104.5,13.9z"/>
	<path class="st0" d="M109.4,5.3c-0.4,0.1-0.9,0.3-1.3,0.5c0.8,0.1,1.5,0.2,2.2,0.4c0.8-0.1,1.7-0.2,2.5-0.1
		C112.1,5.1,110.5,5,109.4,5.3z"/>
	<path class="st0" d="M116.4,6.8c0.7,0.3,1.5,0.6,2.2,1.1c0-1.2-0.6-2.4-2-3.1c-0.2-0.1-0.5-0.2-0.7-0.3
		C116.3,5.2,116.5,6,116.4,6.8z"/>
	<path class="st0" d="M25.3,6.8c0.7,0.3,1.5,0.6,2.2,1.1c0-1.2-0.6-2.4-2-3.1c-0.2-0.1-0.5-0.2-0.7-0.3C25.1,5.2,25.3,6,25.3,6.8z"
		/>
	<path class="st0" d="M13.3,13.9c0.9,0.3,1.9,0.5,2.7,0.5c0.6,0,1.2,0.1,1.8,0c0.7-0.8,1.2-1.6,1.4-2.4c0-0.2,0-0.4,0.1-0.6
		c0-0.3,0-0.6-0.1-0.9c-0.1-0.3-0.3-0.5-0.7-0.7c-1.2,0.3-2.4,0.8-3.4,1.5C14.1,12.2,13.5,13.1,13.3,13.9z"/>
	<path class="st0" d="M99,11.5c0.1-1.1,0.5-2.2,1.2-3.2c0.8-1.2,1.9-2.5,3.2-3.5c-2.9,0.8-6,2.2-7.5,4.7c-1.6,2.6-1.5,7.3,1.7,8.6
		c0.9,0.4,1.9,0.6,2.9,0.6C99.1,16.4,98.3,13.9,99,11.5z"/>
	<path class="st0" d="M18.2,5.3c-0.4,0.1-0.9,0.3-1.3,0.5c0.8,0.1,1.5,0.2,2.2,0.4c0.8-0.1,1.7-0.2,2.5-0.1
		C20.9,5.1,19.3,5,18.2,5.3z"/>
	<path class="st0" d="M228,54.7c-1.2-0.2-2.8,0.3-4.1,1.1l-0.1,0.1c-1.1,0.7-1.9,2.3-2.6,3.5C225.7,57.8,227.3,55.8,228,54.7z"/>
	<path class="st0" d="M125.8,63.3c-1,3.3-2,6.8-3.1,10.6c3.7-1.5,7.7-3.4,10.8-5.9c0,0,0,0,0.1,0c2.1-1.6,3.7-4.1,3.7-5l0,0
		C137,62.6,134.8,61.3,125.8,63.3z"/>
	<path class="st0" d="M138.1,73.8L138.1,73.8L138.1,73.8L138.1,73.8z"/>
	<path class="st1" d="M11.7,22c0.5,0.6,1,1.1,1.5,1.6c1.6,1.6,4.3-0.7,2.7-2.3c-0.1-0.1-0.2-0.2-0.3-0.3c0.8-0.3,1.7-0.6,2.4-0.9
		c1.9-0.8,3.7-1.9,5.3-3.2c4.9-1.8,9-5.9,7.1-11.7C28-1.9,16-0.4,10.8,1.3C6.7,2.6,2.1,5,0.6,9.3C-1,13.8,0.4,18.8,4.7,21
		C6.8,22.2,9.3,22.3,11.7,22z M19.4,10.6c0.1,0.3,0.1,0.6,0.1,0.9c-0.1,0.2-0.1,0.4-0.1,0.6c-0.2,0.8-0.8,1.6-1.4,2.4
		c-0.6,0-1.3,0-1.8,0c-0.8-0.1-1.8-0.2-2.7-0.5c0.1-0.8,0.8-1.7,2-2.6c1-0.7,2.1-1.2,3.4-1.5C19,10,19.3,10.3,19.4,10.6z M19.1,6.2
		c-0.7-0.2-1.5-0.4-2.2-0.4c0.5-0.2,0.9-0.4,1.3-0.5C19.3,5,20.9,5,21.6,6.1C20.8,6.1,19.9,6.1,19.1,6.2z M27.4,7.9
		c-0.7-0.5-1.4-0.8-2.2-1.1c0-0.8-0.1-1.6-0.5-2.3c0.2,0.1,0.5,0.2,0.7,0.3C26.8,5.5,27.4,6.7,27.4,7.9z M4.6,9.4
		c1.6-2.5,4.6-3.8,7.5-4.7C10.9,5.8,9.8,7,9,8.2c-0.7,1-1.1,2.2-1.2,3.2c-0.7,2.4,0.1,4.9,1.4,7.1c-1-0.1-2-0.3-2.9-0.6
		C3.1,16.7,3,11.9,4.6,9.4z"/>
	<path class="st1" d="M114.6,17c4.9-1.8,9-5.9,7.1-11.7c-2.4-7.1-14.4-5.6-19.6-3.9c-4.1,1.3-8.7,3.7-10.2,8
		c-1.6,4.5-0.2,9.5,4.1,11.7c2.1,1.1,4.6,1.2,7,0.9c0.5,0.6,1,1.1,1.5,1.6c1.6,1.6,4.3-0.7,2.7-2.3c-0.1-0.1-0.2-0.2-0.3-0.3
		c0.8-0.3,1.7-0.6,2.4-0.9C111.2,19.4,113,18.3,114.6,17z M110.6,10.6c0.1,0.3,0.1,0.6,0.1,0.9c-0.1,0.2-0.1,0.4-0.1,0.6
		c-0.2,0.8-0.8,1.6-1.4,2.4c-0.6,0-1.3,0-1.8,0c-0.8-0.1-1.8-0.2-2.7-0.5c0.1-0.8,0.8-1.7,2-2.6c1-0.7,2.1-1.2,3.4-1.5
		C110.2,10,110.5,10.3,110.6,10.6z M110.3,6.2c-0.7-0.2-1.5-0.4-2.2-0.4c0.5-0.2,0.9-0.4,1.3-0.5c1.1-0.3,2.7-0.3,3.4,0.8
		C112,6.1,111.1,6.1,110.3,6.2z M118.6,7.9c-0.7-0.5-1.4-0.8-2.2-1.1c0-0.8-0.1-1.6-0.5-2.3c0.2,0.1,0.5,0.2,0.7,0.3
		C118,5.5,118.6,6.7,118.6,7.9z M97.5,17.9c-3.2-1.3-3.3-6-1.7-8.6c1.6-2.5,4.6-3.8,7.5-4.7c-1.3,1.1-2.4,2.3-3.2,3.5
		c-0.7,1-1.1,2.2-1.2,3.2c-0.7,2.4,0.1,4.9,1.4,7.1C99.4,18.5,98.4,18.3,97.5,17.9z"/>
	<path class="st2" d="M163.8,38.9c-0.4-0.6-0.9-1.1-1.5-1.4c-0.3-0.2-0.6-0.3-0.9-0.4l-0.3-0.1l-0.2-0.1c-0.2-0.1-0.3-0.1-0.5-0.1
		c-1.3-0.3-2.7-0.3-4.3,0.1c-0.5,0.1-1.3,0.6-1.9,1.2c-0.6,0.7-1,1.5-1.2,2c0,0.2-0.8,5.2,4.2,7c0,0,0.1,0.1,0.3,0.1l0.3,0.1l0,0
		c0.2,0.1,0.4,0.1,0.6,0.2c0,0,0.4,0.1,0.5,0.1h0.1c0.2,0,0.3,0,0.5,0c0.3,0,0.7,0,1-0.1c1.1-0.2,2.1-0.8,2.8-1.6
		c0.4-0.4,0.6-0.9,0.9-1.5c0.2-0.5,0.3-1.1,0.4-1.7c0.1-0.7,0-1.4-0.2-2C164.4,40.1,164.2,39.5,163.8,38.9z"/>
	<path class="st3" d="M213.3,78.2l-3-1.6c-7.9-4-16-8.2-21.2-14.7c3.6-3.7,7.4-7.3,11.9-11c1.6-1.3,1.8-3.7,0.5-5.2
		c-1.3-1.6-3.7-1.8-5.2-0.5c-5.6,4.6-10.3,9.2-14.7,13.9c0.6-1.2,1.3-2.4,1.9-3.6c1-1.9,2-3.7,2.9-5.4c0.3-0.5,0.4-1.1,0.4-1.7
		c0-1.4-0.8-2.7-2.1-3.3c-1.8-0.9-4.1-0.2-5,1.7c-0.8,1.6-1.8,3.4-2.8,5.2c-4.1,7.7-8.8,16.4-9.2,24.9c-0.1,1.6,0.9,3.1,2.5,3.6
		c1.5,0.5,3.2,0,4.2-1.2c3.2-4.2,6.3-8.1,9.6-11.9c6.2,7.3,15,11.8,22.9,15.8l3,1.5c1.8,0.9,4.1,0.2,5-1.6
		C215.8,81.4,215.1,79.2,213.3,78.2z"/>
	<path class="st2" d="M157.3,51.8c-2.1,0-3.7,1.7-3.7,3.7c0,4.5-1,8.5-2,12.7c-0.6,2.6-1.3,5.4-1.7,8.3c-0.3,2,1.1,3.9,3.1,4.2
		c2,0.3,3.9-1.1,4.2-3.1c0.4-2.6,1-5.1,1.6-7.7c1.1-4.5,2.2-9.1,2.2-14.5C161,53.4,159.3,51.8,157.3,51.8z"/>
	<path class="st4" d="M219.9,50.1L219.9,50.1C219.9,50.1,220,50.1,219.9,50.1L219.9,50.1z"/>
	<path class="st5" d="M255.1,72.9c-0.7-1.9-2.8-3-4.7-2.3c-5.9,2-17.9,3.3-25.1-0.5c-1.5-0.8-2.7-1.8-3.6-3
		c7.7-2.9,12.2-6.5,13.7-10.8l0,0l0,0c0.4-1.2,0.6-2.2,0.6-3.1c0-2.6-1.4-4.1-2.2-4.7c-4.2-3.3-11.4,0-13.9,1.5
		c-4.2,2.5-7,7.5-7.2,12.4c-1,0.7-1.7,1.8-1.7,3.1c0,0.3,0,0.7,0.1,1c0.4,1.5,1.6,2.4,3,2.7c1.6,3.1,4.2,5.7,7.6,7.5
		c9.7,5.1,24.1,3.2,30.9,0.9C254.8,76.9,255.8,74.8,255.1,72.9z M223.7,55.9l0.1-0.1c1.3-0.8,2.9-1.3,4.1-1.1
		c-0.7,1-2.3,3.1-6.9,4.7C221.7,58.2,222.6,56.6,223.7,55.9z"/>
	<path class="st6" d="M144,59.6c-2.6-5.1-9.5-5.3-15.4-4.4c1.7-4.5,3.6-9.1,6.2-14.2c0.9-1.8,0.2-4.1-1.7-5c-1.8-0.9-4.1-0.2-5,1.7
		c-3.6,7.1-6,13.2-8.1,19.4c-1.7,0.7-2.6,2.5-2.1,4.4c0.1,0.4,0.2,0.7,0.4,1c-1.2,3.9-2.3,7.9-3.6,12.4l-0.5,1.9
		c-0.4,1.4,0,2.8,1,3.7l0,0c0.7,1.9,2.8,3,4.7,2.3c5.6-1.9,12.7-4.7,18.3-9l0,0l0,0c2.6-2,6.6-6.4,6.6-10.9
		C144.7,61.8,144.5,60.7,144,59.6L144,59.6z M133.6,67.9C133.5,67.9,133.5,67.9,133.6,67.9c-3.2,2.5-7.2,4.5-10.9,6
		c1.1-3.8,2.1-7.2,3.1-10.6c9-2,11.2-0.7,11.5-0.4l0,0C137.3,63.8,135.7,66.3,133.6,67.9z"/>
	<path class="st7" d="M138.1,73.8L138.1,73.8L138.1,73.8L138.1,73.8z"/>
	<path class="st1" d="M98.7,38.7c-0.1,0-0.1,0-0.2,0c-1.6,0-3.8,1.4-4.1,3.6c-0.1,0.4,0,0.2-0.1,0.6c-2.4,15.9-12.9,27.6-28.2,32.6
		c-13.5,4.5-30.2,2.9-41.6-6c-9.1-7.1-11.9-18.3-10.1-29.3c0.4-2.4-2.7-3.4-4.5-3c-1.3,0.3-2.2,1-2.7,2c-0.6,1-0.9,2-1.1,3.1
		C3.6,57.9,11,72,24.9,79.3c13.8,7.3,30.9,8.2,45.7,3.6C88,77.6,101.3,64,103.1,45.4c0-0.2,0-0.5,0-0.6
		C103.3,40.7,101.1,38.7,98.7,38.7z"/>
</g>
</svg>
